<svg xmlns="http://www.w3.org/2000/svg" width="444.369" height="345.562" viewBox="0 0 444.369 345.562">
    <g transform="translate(-309.088 -157.967)">
        <g transform="translate(309.088 157.967)">
            <g>
                <ellipse cx="222.184" cy="26.608" rx="222.184" ry="26.608" transform="translate(0 292.346)" fill="#c7e7ff"/>
                <g transform="translate(27.741)">
                    <g transform="translate(312.221 10.413)">
                        <g transform="translate(4.552)">
                            <g transform="translate(21.287 5.015)">
                                <path d="M581.217,249.846l-1.849.476c-.542-2.1-13.112-51.819.481-81.2l1.735.8C568.278,198.682,581.086,249.337,581.217,249.846Z" transform="translate(-573.553 -169.121)" fill="#1b8dcc"/>
                            </g>
                            <g transform="translate(9.686 13.602)">
                                <path d="M577.969,208.778l-.8-.846c-8.578-9.123-11.872-31.387-12.007-32.33l1.891-.272c.03.219,3.133,21.186,10.732,30.41a183.623,183.623,0,0,0,15.84-28.582l1.758.751c-.071.163-7.074,16.424-16.741,29.925Z" transform="translate(-565.166 -175.329)" fill="#1b8dcc"/>
                            </g>
                            <g transform="translate(4.351 40.282)">
                                <path d="M580.842,217.894l-.529-.255c-9.65-4.657-18.627-19.414-19-20.041l1.635-.986c.089.145,8.725,14.342,17.68,19.043,17.853-13.691,21.416-20.965,21.45-21.038l1.733.8c-.144.313-3.742,7.815-22.5,22.117Z" transform="translate(-561.309 -194.618)" fill="#1b8dcc"/>
                            </g>
                            <g>
                                <path d="M585.365,169.191a5.413,5.413,0,1,1-6.852-3.414A5.411,5.411,0,0,1,585.365,169.191Z" transform="translate(-551.781 -165.495)" fill="#e6e6e6"/>
                                <path d="M593.049,176.811A5.414,5.414,0,1,1,586.2,173.4,5.415,5.415,0,0,1,593.049,176.811Z" transform="translate(-548.837 -162.575)" fill="#e6e6e6"/>
                                <path d="M597.836,194.081a5.414,5.414,0,1,1-6.854-3.412A5.415,5.415,0,0,1,597.836,194.081Z" transform="translate(-547.003 -155.957)" fill="#e6e6e6"/>
                                <path d="M572.683,173.44a5.414,5.414,0,1,1-6.854-3.412A5.414,5.414,0,0,1,572.683,173.44Z" transform="translate(-556.641 -163.866)" fill="#e6e6e6"/>
                                <path d="M568.711,195.408A5.413,5.413,0,1,1,561.857,192,5.415,5.415,0,0,1,568.711,195.408Z" transform="translate(-558.163 -155.449)" fill="#ff918b"/>
                            </g>
                        </g>
                        <g transform="translate(0.931 37.661)">
                            <g>
                                <path d="M574.06,387.454s-64.952-93.215,48.455-194.731C610.176,244.131,655.893,311.016,574.06,387.454Z" transform="translate(-555.545 -192.723)" fill="#e6e6e6"/>
                            </g>
                            <g transform="translate(3.815 18.911)" opacity="0.176">
                                <path d="M607.63,208.916a1.6,1.6,0,0,0-.422-2.245,1.629,1.629,0,0,0-2.261.449c-32.03,46.985-36.553,139.194-37.112,172.7.943,1.573,1.516,2.394,1.516,2.394.589-.549,1.148-1.1,1.723-1.646C571.565,348.009,575.835,255.561,607.63,208.916Z" transform="translate(-554.651 -206.395)" fill="#fff"/>
                                <g transform="translate(22.096 28.133)">
                                    <path d="M605.841,239.09a1.612,1.612,0,0,0-1.715-2.722l-20.737,10.952c-2.389-7.446-5.688-17.931-5.866-19.066a1.537,1.537,0,0,0-1.631-1.519,1.71,1.71,0,0,0-1.614,1.719c0,.835,2.223,8.14,6.6,21.713l.588,1.822,24.16-12.761A1.751,1.751,0,0,0,605.841,239.09Z" transform="translate(-574.278 -226.735)" fill="#fff"/>
                                </g>
                                <g transform="translate(1.039 81.746)">
                                    <path d="M609.064,273.913a1.632,1.632,0,0,0,.548-1.9,1.612,1.612,0,0,0-2.108-.892l-28.9,11.65-16.764-16.811a1.656,1.656,0,0,0-2.3.008,1.617,1.617,0,0,0-.021,2.292l18.269,18.32,30.9-12.454A1.847,1.847,0,0,0,609.064,273.913Z" transform="translate(-559.054 -265.496)" fill="#fff"/>
                                </g>
                                <g transform="translate(0 126.169)">
                                    <path d="M602.9,301a1.612,1.612,0,0,0-1.667-2.747l-26.521,12.908-13.651-13.094a1.634,1.634,0,0,0-2.271,2.349l15.272,14.652,28.571-13.9A1.722,1.722,0,0,0,602.9,301Z" transform="translate(-558.303 -297.612)" fill="#fff"/>
                                </g>
                            </g>
                        </g>
                        <g transform="translate(32.087 106.669)">
                            <g>
                                <path d="M581.662,366.781s-27.319-75.563,68.729-124.167C632.556,275.475,651.551,329.532,581.662,366.781Z" transform="translate(-578.07 -242.614)" fill="#cbccce"/>
                            </g>
                            <g transform="translate(2.292 10.775)">
                                <path d="M638.688,252.408a1.136,1.136,0,0,0,.123-1.611,1.154,1.154,0,0,0-1.628-.106c-30.478,26.239-50.436,88.4-56.948,111.192.357,1.248.6,1.914.6,1.914.5-.268.986-.541,1.48-.811C588.6,340.833,608.434,278.457,638.688,252.408Z" transform="translate(-579.533 -250.404)" fill="#fff" opacity="0.181"/>
                                <g transform="translate(33.005 14.114)">
                                    <path d="M623.258,274.56a1.141,1.141,0,0,0-.675-2.174l-16.168,3.689c-.271-5.523-.606-13.291-.522-14.1a1.086,1.086,0,0,0-.835-1.336,1.21,1.21,0,0,0-1.418.88c-.149.571.03,5.967.535,16.039l.069,1.353,18.839-4.3A1.51,1.51,0,0,0,623.258,274.56Z" transform="translate(-603.589 -260.609)" fill="#fff" opacity="0.181"/>
                                </g>
                                <g transform="translate(8.84 46.889)">
                                    <path d="M619.08,298.939a1.152,1.152,0,0,0,.722-1.2,1.138,1.138,0,0,0-1.277-.994l-21.872,2.671-8.377-14.55a1.171,1.171,0,0,0-1.574-.416,1.144,1.144,0,0,0-.434,1.562l9.129,15.858,23.389-2.853A1.345,1.345,0,0,0,619.08,298.939Z" transform="translate(-586.119 -284.304)" fill="#fff" opacity="0.181"/>
                                </g>
                                <g transform="translate(0 77.042)">
                                    <path d="M609.917,316.319a1.141,1.141,0,0,0-.636-2.183L588.8,318.1l-6.93-11.443a1.155,1.155,0,0,0-1.981,1.19l7.751,12.8,22.063-4.271A1.3,1.3,0,0,0,609.917,316.319Z" transform="translate(-579.728 -306.104)" fill="#fff" opacity="0.181"/>
                                </g>
                            </g>
                        </g>
                        <path d="M613.724,400.176H564.392l-9.519-77.326h68.247Z" transform="translate(-554.872 -105.201)" fill="#06345e"/>
                    </g>
                    <g>
                        <g transform="translate(113.112)">
                            <g>
                                <g transform="translate(0 10.79)">
                                    <rect width="214.114" height="299.311" rx="11.448" fill="#1b8dcc"/>
                                </g>
                                <g transform="translate(18.419 28.025)">
                                    <rect width="177.275" height="265.913" fill="#f3faff"/>
                                </g>
                                <g transform="translate(69.503 16.185)">
                                    <path d="M526.189,203.018h-54.93a10.1,10.1,0,0,1-10.089-10.089V169.668h75.109v23.261A10.1,10.1,0,0,1,526.189,203.018ZM464.533,173.03v19.9a6.733,6.733,0,0,0,6.726,6.726h54.93a6.733,6.733,0,0,0,6.726-6.726v-19.9Z" transform="translate(-461.17 -169.668)" fill="#006cb5"/>
                                </g>
                                <g transform="translate(64.458)">
                                    <rect width="85.197" height="21.58" fill="#006cb5"/>
                                </g>
                            </g>
                            <g transform="translate(55.088 41.273)">
                                <g transform="translate(0 0)">
                                    <circle cx="36.748" cy="36.748" r="36.748" transform="translate(0 51.969) rotate(-45)" fill="#c7e7ff"/>
                                </g>
                                <g transform="translate(25.835 26.309)">
                                    <path d="M469.426,248.328v9.986a36.731,36.731,0,0,0,52.27,0v-9.986a18.3,18.3,0,0,0-18.247-18.248h-.426a12.83,12.83,0,1,0-14.926,0h-.425A18.3,18.3,0,0,0,469.426,248.328Z" transform="translate(-469.426 -206.827)" fill="#005091"/>
                                </g>
                            </g>
                            <g transform="translate(55.401 135.37)">
                                <g>
                                    <g>
                                        <path d="M459.718,255.836l2.7,5.474,6.041.878-4.371,4.261,1.032,6.017-5.4-2.841-5.4,2.841,1.032-6.017-4.372-4.261,6.041-.878Z" transform="translate(-450.975 -255.836)" fill="#e6e6e6"/>
                                    </g>
                                </g>
                                <g transform="translate(21.457)">
                                    <g>
                                        <path d="M475.23,255.836l2.7,5.474,6.041.878L479.6,266.45l1.032,6.017-5.4-2.841-5.4,2.841,1.032-6.017-4.372-4.261,6.041-.878Z" transform="translate(-466.487 -255.836)" fill="#e6e6e6"/>
                                    </g>
                                </g>
                                <g transform="translate(42.913)">
                                    <path d="M490.743,255.836l2.7,5.474,6.041.878-4.372,4.261,1.032,6.017-5.4-2.841-5.4,2.841,1.032-6.017L482,262.189l6.041-.878Z" transform="translate(-482 -255.836)" fill="#e6e6e6"/>
                                </g>
                                <g transform="translate(64.37)">
                                    <g>
                                        <path d="M506.255,255.836l2.7,5.474,6.041.878-4.372,4.261,1.032,6.017-5.4-2.841-5.4,2.841,1.032-6.017-4.371-4.261,6.041-.878Z" transform="translate(-497.512 -255.836)" fill="#e6e6e6"/>
                                    </g>
                                </g>
                                <g transform="translate(85.826)">
                                    <path d="M521.768,255.836l2.7,5.474,6.041.878-4.371,4.261,1.032,6.017-5.4-2.841-5.4,2.841,1.032-6.017-4.371-4.261,6.041-.878Z" transform="translate(-513.025 -255.836)" fill="#c7e7ff"/>
                                </g>
                            </g>
                            <g transform="translate(40.426 166.292)">
                                <g>
                                    <rect width="133.261" height="3.905" fill="#c7e7ff"/>
                                </g>
                                <g transform="translate(0 8.968)">
                                    <rect width="133.261" height="3.905" fill="#c7e7ff"/>
                                </g>
                                <g transform="translate(0 17.937)">
                                    <rect width="133.261" height="3.905" fill="#c7e7ff"/>
                                </g>
                                <g transform="translate(0 26.904)">
                                    <rect width="133.261" height="3.905" fill="#c7e7ff"/>
                                </g>
                                <g transform="translate(0 35.872)">
                                    <rect width="133.261" height="3.905" fill="#c7e7ff"/>
                                </g>
                            </g>
                            <g transform="translate(35.356 227.687)">
                                <g transform="translate(0 0.026)">
                                    <circle cx="13.95" cy="13.95" r="13.95" transform="matrix(0.67, -0.743, 0.743, 0.67, 0, 20.723)" fill="#c7e7ff"/>
                                </g>
                                <g transform="translate(34.866 0)">
                                    <circle cx="13.95" cy="13.95" r="13.95" transform="translate(0 19.729) rotate(-45)" fill="#e6e6e6"/>
                                </g>
                                <g transform="translate(69.759 0)">
                                    <circle cx="13.95" cy="13.95" r="13.95" transform="translate(0 19.729) rotate(-45)" fill="#e6e6e6"/>
                                </g>
                                <g transform="translate(104.664 0.012)">
                                    <circle cx="13.95" cy="13.95" r="13.95" transform="matrix(0.683, -0.731, 0.731, 0.683, 0, 20.392)" fill="#e6e6e6"/>
                                </g>
                            </g>
                            <g transform="translate(44.364 233.615)">
                                <path d="M453.568,345.148,443.46,334.539a1.68,1.68,0,1,1,2.433-2.318l7.919,8.309,15.63-13.266a1.682,1.682,0,1,1,2.177,2.564Z" transform="translate(-442.995 -326.865)" fill="#ffd31a"/>
                            </g>
                            <g transform="translate(113.078 233.615)">
                                <path d="M503.244,345.148l-10.105-10.609a1.68,1.68,0,1,1,2.433-2.318l7.917,8.309,15.631-13.266a1.682,1.682,0,1,1,2.177,2.564Z" transform="translate(-492.674 -326.865)" fill="#c8d300"/>
                            </g>
                            <g transform="translate(148.239 233.615)">
                                <path d="M528.668,345.148l-10.11-10.609a1.681,1.681,0,1,1,2.434-2.318l7.917,8.309,15.63-13.266a1.682,1.682,0,1,1,2.177,2.564Z" transform="translate(-518.094 -326.865)" fill="#c8d300"/>
                            </g>
                        </g>
                        <g transform="translate(217.686 87.454)">
                            <g>
                                <g>
                                    <g transform="translate(0 39.76)">
                                        <path d="M561.912,256.158s-3.771-.267-6,1.317-16.8,17-20.547,19.013-22.151-9.364-33.961-14.548l-2.3,2.88s13.106,11.233,20.882,16.706,13.106,7.992,18.867,3.96,16.345-14.977,19.081-17.137S561.912,256.158,561.912,256.158Z" transform="translate(-481.709 -247.563)" fill="#ffd199"/>
                                        <path d="M513.171,267.812s-4.964-2.333-5.973-4.685,0-2.017-1.26-5.545,0-6.553-.84-7.393-2.437.5-2.268,3.108.84,4.368-.757,4.368-7.981-4.789-10-5.628-2.142.882,0,2.31,5.125,3.787,5.125,3.847-6.259-3.8-8.065-5.274-1.806,1.134-.252,2.31,6.049,4.159,6.637,4.621-6.888-1.806-8.022-2.311-1.555,1.051.293,1.975,6.259,2.184,6.89,2.562-5.04-.5-6.217-.755-1.176.882.588,1.722,3.613.546,5.671,1.427,4.271,3.981,7.141,4.033c3.509.064,8.168,3.83,8.168,3.83Z" transform="translate(-486.526 -249.939)" fill="#ffd199"/>
                                    </g>
                                    <g transform="translate(60.944)">
                                        <g>
                                            <g>
                                                <g>
                                                    <path d="M576.8,281.608c4.35-10.44,6.7-35.723,1.145-44.546-1.484-2.869-3.652-6.852-4.851-9.161-1.607-3.093-4.264-1.887-6.985-4.78-2.013-2.141-6.7-2.793-9.394-.422-.834.733-1.876,2.57-3.956,2.812-4.4.512-6.271,1.058-7.317,6.75-.647,3.527-1.7,9.395-.539,12.328,1.768,4.486-4.461,15.519-2.391,19.875.759,1.6,1.628,1.9,2.931,3.094,3.487,3.2,9.767-2.166,13.772.35,2.8,1.757-16.119,36.3-13.772,38.621.862.853,15.061,3.342,15.772,4.342C567.658,308.04,573.781,288.651,576.8,281.608Z" transform="translate(-526.182 -221.194)" fill="#06345e"/>
                                                    <path d="M552.651,240.92s-.447,9.123-5.631,13.941c1.575,7.689,8.321,12.216,17.2,1.472-2.136-4.69-2.405-14.825-2.405-14.825Z" transform="translate(-524.291 -213.636)" fill="#f4bf87"/>
                                                    <path d="M534.227,292.927s29.224,2.827,34.722-.954c1.74,1.035-10.738,27.6-12.389,35.294-3.581,12.136-7.854,18.847-7.445,36.92,7.291,16.243,2.692,33.3,3.591,52.6-7.527,14.2-12.01,6.917-12.01,6.917s5.515-7.992,4.974-11.215C542.206,391.849,527.69,313.5,534.227,292.927Z" transform="translate(-529.833 -194.074)" fill="#ffd199"/>
                                                    <path d="M535.487,303.415s28.746-5.974,32.875-11.218c8.713,14.94-2.064,29.542-1.357,37.382.183,12.653-3.485,17.385,2.267,34.523,11.783,13.346,13.254,30.947,19.84,49.111-5.683,25.467-12.247,11.734-12.247,11.734s4.494-9.573,3.86-10.786C574.037,401.344,535.343,326.216,535.487,303.415Z" transform="translate(-528.71 -193.988)" fill="#ffd199"/>
                                                    <path d="M566.624,236.617a23.8,23.8,0,0,1-1.854,7.245c-1.635,3.737-4.284,6.943-7.948,7.867-3.072-.206-5.378-2.318-6.931-5.292a17.344,17.344,0,0,1-1.805-6.975c-.046-.737-.065-1.426-.062-2.071,2.986-3.888,2.986-3.888,4.656-7.484C552.68,229.907,558.917,238.766,566.624,236.617Z" transform="translate(-523.906 -217.856)" fill="#ffd199"/>
                                                    <path d="M534.111,292.078s30.487.5,36.2-1.847c7.588,10.029,7.4,21.468,3.838,34.592s-.113,25.257.45,24.93c-17.438,8.111-35.528,4.321-41.528,3.2C529.7,332.324,529.5,298.62,534.111,292.078Z" transform="translate(-530.587 -194.741)" fill="#002f6f"/>
                                                    <path d="M569.306,252.915s-5.5,8.357-13.386,4.249c-3.819-4.513-.136-9.738-.136-9.738s-.679-.256-5.385.046c-1.668.108-9.928,7.885-9.989,7.935-2.438,1.974-7.729,4.834-6.631,12.13.245,1.631,2.787,6.145,3.066,10.291a186.711,186.711,0,0,0-3.741,31.612s18.716,9.808,36.935-.5c-2.125-6.033-5.165-14.133,2.008-31.3,2.683,4.293,5.826,8.314,5.826,8.314l10.964-7.36S578.767,256.369,569.306,252.915Z" transform="translate(-529.623 -211.181)" fill="#c8d300"/>
                                                </g>
                                            </g>
                                            <rect width="34.064" height="45.61" transform="translate(4.034 75.062) rotate(-15.612)" fill="#c7e7ff"/>
                                            <g transform="translate(9.607 67.822)">
                                                <path d="M592.309,286.222c-.971-5.585-5.783-15.994-5.783-15.994l-8.73,5.86s3.784,7.584,2.444,9.757c-2.815,4.078-18.464,10.776-25.542,13.653a7.665,7.665,0,0,1-3.25.524c-1.237-.246-2.669-1.978-3.215-2.769s-.05-3.215-1.335-3.66-1.78,1.582-.891,3.61.743,3.017-.741,3.76-6.187.044-7.094-1.177c-.708.362-.875,2.309-.257,2.907-.834,1.36.452,2.4.625,2.621-1.162.791.791,1.953.791,1.953-.643.5-.144,1.822,2,2.177a15.374,15.374,0,0,0,6.454-.149c2.869-.568,6.144-2.289,8.486-2.954l.013-.007C568.728,303.082,593.228,291.5,592.309,286.222Z" transform="translate(-537.533 -270.228)" fill="#ffd199"/>
                                            </g>
                                        </g>
                                    </g>
                                </g>
                                <g transform="translate(82.656 28.27)">
                                    <path d="M551.31,246.378s-.2,5.061,4.61,5.483,6.458-2.9,7.039-3.349c2.551-1.151,3.418,5.845,3.418,5.845s-6.066,9.493-15.068,6.732S547.375,246.66,551.31,246.378Z" transform="translate(-546.284 -239.815)" fill="#1e93d2"/>
                                    <path d="M558.625,252.6s-.527-10.688,16.237-10.969C569.032,250.82,563.6,253.632,558.625,252.6Z" transform="translate(-541.556 -241.633)" fill="#1e93d2"/>
                                    <path d="M558.624,251.262s4.45-6.725,15.4,4.653C566.5,258.386,559.278,252.668,558.624,251.262Z" transform="translate(-541.556 -238.7)" fill="#1e93d2"/>
                                </g>
                            </g>
                            <path d="M580.186,378.736s1.978,1.21,2.534,6.122a47.089,47.089,0,0,1-.389,10.787l-3.148.429-.54-3.963s-3.772,4.9-7.784,5.938-12.537,3.657-12.931,2.848,10.641-10.042,10.641-10.042,2.244,2.706,4.61.844S580.186,378.736,580.186,378.736Z" transform="translate(-459.171 -160.829)" fill="#06345e"/>
                            <path d="M553.347,377.855s1.978,1.21,2.534,6.122a47.077,47.077,0,0,1-.389,10.787l-3.148.429-.539-3.963s-3.772,4.9-7.785,5.938-12.537,3.656-12.931,2.848,10.64-10.042,10.64-10.042,2.245,2.706,4.611.844S553.347,377.855,553.347,377.855Z" transform="translate(-469.455 -161.166)" fill="#06345e"/>
                        </g>
                        <g transform="translate(0 123.08)">
                            <g transform="translate(72.366)">
                                <g transform="translate(0 15.133)">
                                    <g transform="translate(35.627 124.532)">
                                        <path d="M430.471,400.658h0a2.976,2.976,0,0,1-2.967-2.967v-46.8a2.976,2.976,0,0,1,2.967-2.967h0a2.975,2.975,0,0,1,2.967,2.967v46.8A2.975,2.975,0,0,1,430.471,400.658Z" transform="translate(-399.448 -347.925)" fill="#06345e"/>
                                        <path d="M469.266,391.836c-.249-6.317-14.038-11.411-31.023-11.411s-30.774,5.094-31.023,11.411Z" transform="translate(-407.22 -335.472)" fill="#06345e"/>
                                    </g>
                                    <g>
                                        <path d="M415.539,385.643h0a5.847,5.847,0,0,1-7-4.365L381.613,265.039a5.85,5.85,0,0,1,4.365-7h0a5.851,5.851,0,0,1,7,4.365L419.9,378.646A5.848,5.848,0,0,1,415.539,385.643Z" transform="translate(-381.463 -257.892)" fill="#005ca9"/>
                                        <rect width="71.887" height="13.731" rx="4.118" transform="translate(33.674 113.94)" fill="#005ca9"/>
                                    </g>
                                </g>
                                <g transform="translate(27.706)">
                                    <g transform="translate(0 35.083)">
                                        <g transform="translate(21.685 60.898)">
                                            <g transform="translate(69.187 88.135)">
                                                <g transform="translate(2.877)">
                                                    <path d="M471.144,380.063l-1.873,9.246s9.316,1.567,9.645,1.567,2.362-10.158,2.362-10.158Z" transform="translate(-469.271 -380.063)" fill="#ffd199"/>
                                                </g>
                                                <path d="M500.966,393.072c.84,1.065,2.726,3.383-2.975,3.219s-29.244-.082-30.484-1.228,1.452-9.69,3.08-10.171c2.62,2.469,8.689,3.632,9.9,1.429C485.833,387.64,499.4,391.082,500.966,393.072Z" transform="translate(-467.191 -378.213)" fill="#06345e"/>
                                            </g>
                                            <path d="M430.494,323.014s-27.987,21.517-2.834,26.3c31.023,5.9,59.4-11.945,61.255-9.125s1.073,59.577-.044,64.839c9.363,2.611,14.424,1.369,14.424,1.369s5.047-61.821,5.437-71.994c.5-12.92,4.855-25.358-39.822-12.92C437.9,324.775,430.494,323.014,430.494,323.014Z" transform="translate(-417.171 -316.343)" fill="#002f6f"/>
                                        </g>
                                        <path d="M422.047,272.341l13.641,1.368s10.426,4.268,9.545,35.1,7.8,34.748,7.8,34.748-26.972,9.847-51.531,3.51c-.284-35.666,10.59-62.687,15.548-72.042A5.077,5.077,0,0,1,422.047,272.341Z" transform="translate(-401.493 -272.315)" fill="#76b82a"/>
                                        <g transform="translate(1.881 69.899)">
                                            <path d="M494.9,383.677a31.9,31.9,0,0,1,4.977,4.989c1.632,2.31,6.01,2.392,8.9.508s3.8-8.029,3.8-8.029-8.686,1.3-12.845-4.19C495.32,376.955,494.9,383.677,494.9,383.677Z" transform="translate(-367.585 -302.12)" fill="#ffd199"/>
                                            <path d="M404.466,324.193s-9.213,25.085,16.4,25.085,54.352-4.761,55.794-1.714c8.222,17.364,45.953,56.266,49.026,60.7,8.361-4.927,10.942-9.419,10.942-9.419s-41.245-59.474-46.863-67.994-19.663-9.291-50.478-6.654C410.454,324.864,404.466,324.193,404.466,324.193Z" transform="translate(-402.853 -322.851)" fill="#002f6f"/>
                                            <path d="M525.849,373.942s-13.783,7.194-20.865,7.7a7.638,7.638,0,0,1-.862,4.462s-3.057,6.1-5.6,3.712c-.7,1.954,1.979,8.711,2.871,9.028,2.918,1.037,10.6-6.441,15.284-10.165C523.784,383.031,533.054,375.105,525.849,373.942Z" transform="translate(-366.238 -303.274)" fill="#06345e"/>
                                        </g>
                                    </g>
                                    <g transform="translate(16.699 41.171)">
                                        <path d="M454.37,311.539s10.805,3.26,13.89,10.042-.22,14.209-3.966,14.428-5.387-5.446-6.166-9.545-6.919-6.6-6.919-6.6Z" transform="translate(-399.142 -263.373)" fill="#ffd199"/>
                                        <path d="M419.457,291.614s3.365-12.353,9.009-14.263c5.618-1.9,9.036.17,8.73,10.375s-8.624,29.785-6.737,31.235,33.69,1.123,38.276,3.416c3.595,4.588,2.274,10.919,2.274,10.919s-46.9,3.719-55.958-.087C410,331.084,419.457,291.614,419.457,291.614Z" transform="translate(-413.566 -276.716)" fill="#c8d300"/>
                                    </g>
                                    <path d="M416.234,278.367c1-2.1,3.761-4.515,2.811-10.549,7.511,7.287,9.26-7.314,10.628-7.719s5.292-.5,6.844-1.134,6.111-2.5,6.111-2.5-1,8.7-3.192,13.215-3.831,6.526-6.021,5.066-5.042,4.866-5.042,4.866" transform="translate(-395.845 -243.305)" fill="#f4bf87"/>
                                    <path d="M443.988,255.736s-1.512,8.293-6.047,8.078c-2.376.539-2.051,5.724-2.051,5.724h-1.512s.647-3.806-1.621-4.549-2.591,3.754-3.131,5.663-6.155,5.542-10.367,2.484-2.376-10.941-2.484-15.8,4.535-10.8,9.18-9.4c3.995-2.375,9.179,0,13.067,2.268a6.276,6.276,0,0,0,6.8.108C443.988,253.878,443.988,255.736,443.988,255.736Z" transform="translate(-395.756 -246.951)" fill="#06345e"/>
                                </g>
                            </g>
                            <g transform="translate(0 59.864)">
                                <g transform="translate(0 38.159)">
                                    <g transform="translate(0 3.542)">
                                        <g>
                                            <g>
                                                <path d="M363.313,323.082,329.27,421.069a2.243,2.243,0,0,0,2.119,2.979h0a2.245,2.245,0,0,0,2.086-1.414l38.8-97.6Z" transform="translate(-329.144 -319.345)" fill="#06345e"/>
                                                <path d="M371.112,320.38l-26.131,96.884a2.243,2.243,0,0,0,2.166,2.827h.109a2.241,2.241,0,0,0,2.137-1.562l30.683-96.2Z" transform="translate(-323.106 -320.38)" fill="#06345e"/>
                                            </g>
                                            <g transform="translate(142.475)">
                                                <path d="M451.119,323.082l34.043,97.987a2.243,2.243,0,0,1-2.119,2.979h0a2.245,2.245,0,0,1-2.086-1.414l-38.8-97.6Z" transform="translate(-428.317 -319.345)" fill="#06345e"/>
                                                <path d="M441.114,320.38l26.131,96.884a2.243,2.243,0,0,1-2.166,2.827h-.109a2.241,2.241,0,0,1-2.137-1.562l-30.683-96.2Z" transform="translate(-432.15 -320.38)" fill="#06345e"/>
                                            </g>
                                        </g>
                                    </g>
                                    <path d="M500.285,328.8H347.55a5.507,5.507,0,0,1-5.49-5.491h0a5.506,5.506,0,0,1,5.49-5.491H500.285a5.506,5.506,0,0,1,5.49,5.491h0A5.507,5.507,0,0,1,500.285,328.8Z" transform="translate(-324.195 -317.819)" fill="#005091"/>
                                </g>
                                <g transform="translate(18.6)">
                                    <g>
                                        <path d="M0,0H36.15a0,0,0,0,1,0,0V2.985a1.5,1.5,0,0,1-1.5,1.5H0a0,0,0,0,1,0,0V0A0,0,0,0,1,0,0Z" transform="translate(62.493 33.676)" fill="#75a0d3"/>
                                        <g>
                                            <path d="M409.955,328.39H348.569l-5.917-33.582a3.9,3.9,0,0,1,3.841-4.577H398.3a5.876,5.876,0,0,1,5.789,4.858Z" transform="translate(-342.592 -290.231)" fill="#a8c9ef"/>
                                            <path d="M408.385,328.066l-5.661-32.132a5.877,5.877,0,0,0-5.789-4.858H345.127a2.368,2.368,0,0,0-2.476,3.408l5.917,33.582Z" transform="translate(-342.591 -289.907)" fill="#8caee0"/>
                                        </g>
                                    </g>
                                    <g transform="translate(23.452 12.337)">
                                        <g>
                                            <path d="M366.861,302.807a3.657,3.657,0,1,1-3.657-3.657A3.658,3.658,0,0,1,366.861,302.807Z" transform="translate(-359.547 -299.15)" fill="#a8c9ef"/>
                                            <circle cx="2.445" cy="2.445" r="2.445" transform="translate(7.904 4.873)" fill="#a8c9ef"/>
                                            <circle cx="1.223" cy="1.223" r="1.223" transform="translate(7.904 1.608)" fill="#a8c9ef"/>
                                        </g>
                                    </g>
                                </g>
                            </g>
                        </g>
                    </g>
                </g>
            </g>
        </g>
    </g>
</svg>
